<svg xmlns="http://www.w3.org/2000/svg" fill="none" viewBox="0 0 119 78"><rect width="86" height="62" x="17" y="1" stroke="currentColor" stroke-width="2" rx="3"/><rect width="78" height="14" x="21" y="5" stroke="currentColor" stroke-width="2" rx="3"/><rect width="38" height="36" x="21" y="23" stroke="currentColor" stroke-width="2" rx="3"/><rect width="36" height="22" x="63" y="37" stroke="currentColor" stroke-width="2" rx="3"/><rect width="36" height="10" x="63" y="23" stroke="currentColor" stroke-width="2" rx="3"/><path fill="currentColor" fill-opacity=".25" fill-rule="evenodd" stroke="currentColor" d="M16 55.2892C6.07439 57.7013 0 60.9397 0 64.5C0 71.9559 26.6391 78 59.5 78C92.3609 78 119 71.9559 119 64.5C119 61.0609 113.332 57.9221 104 55.5383V60C104 62.2092 102.209 64 100 64H20C17.7909 64 16 62.2092 16 60V55.2892Z" clip-rule="evenodd"/></svg>