<svg xmlns="http://www.w3.org/2000/svg" fill="none" viewBox="0 0 119 78"><rect width="86" height="62" x="16" y="1" stroke="currentColor" stroke-width="2" rx="3"/><path fill="currentColor" fill-opacity="1" d="M60 32.6416L80 32.6416C80.902 32.6416 81.9179 34.641 81.9179 34.641C80.902 46.9604 70.5815 56.6416 58 56.6416V32.6416Z"/><path fill="currentColor" fill-opacity=".25" d="M58 10.6416C58 9.53706 57.1014 8.63294 56.0006 8.72373C43.6813 9.73974 34 20.0601 34 32.6416C34 45.8965 44.7452 56.6416 58 56.6416C70.5815 56.6416 80.9019 46.9604 81.9179 34.641C82.0087 33.5402 81.1046 32.6416 80 32.6416L60 32.6416C58.8954 32.6416 58 31.7462 58 30.6416V10.6416Z"/></svg>